solid prop2
   color       0.58039 0.87059 0.32157
  facet normal -0.707106781 -0 -0.707106781
    outer loop
      vertex 0.0646181107 -0.0858074799 -0.005
      vertex 0.0596181107 -0.0858074799 -2.83276955E-18
      vertex 0.0596181107 -0.0662759171 -2.83276955E-18
    endloop
  endfacet
  facet normal 3.93066417E-16 0.247998683 -0.968760369
    outer loop
      vertex 0.0646181107 -0.0858074799 -0.005
      vertex 0.0596181107 -0.0662759171 -2.83276955E-18
      vertex 0.0696181107 -0.0662759171 1.2246468E-18
    endloop
  endfacet
  facet normal 0.707106781 0 -0.707106781
    outer loop
      vertex 0.0696181107 -0.0662759171 1.2246468E-18
      vertex 0.0696181107 -0.0858074799 1.2246468E-18
      vertex 0.0646181107 -0.0858074799 -0.005
    endloop
  endfacet
  facet normal 4.05741635E-16 0 -1
    outer loop
      vertex 0.0596181107 -0.0662759171 -2.83276955E-18
      vertex 0.0596181107 -0.0467443542 -2.83276955E-18
      vertex 0.0696181107 -0.0467443542 1.2246468E-18
    endloop
  endfacet
  facet normal 4.05741635E-16 0 -1
    outer loop
      vertex 0.0596181107 -0.0662759171 -2.83276955E-18
      vertex 0.0696181107 -0.0467443542 1.2246468E-18
      vertex 0.0696181107 -0.0662759171 1.2246468E-18
    endloop
  endfacet
  facet normal 4.05741635E-16 0 -1
    outer loop
      vertex 0.0696181107 -0.0272127953 1.2246468E-18
      vertex 0.0696181107 -0.0467443542 1.2246468E-18
      vertex 0.0596181107 -0.0467443542 -2.83276955E-18
    endloop
  endfacet
  facet normal 4.05741635E-16 0 -1
    outer loop
      vertex 0.0696181107 -0.0272127953 1.2246468E-18
      vertex 0.0596181107 -0.0467443542 -2.83276955E-18
      vertex 0.0596181107 -0.0272127953 -2.83276955E-18
    endloop
  endfacet
  facet normal 4.05741635E-16 0 -1
    outer loop
      vertex 0.0596181107 -0.0272127953 -2.83276955E-18
      vertex 0.0596181107 -0.00768123341 -2.83276955E-18
      vertex 0.0696181107 -0.00768123341 1.2246468E-18
    endloop
  endfacet
  facet normal 4.05741635E-16 0 -1
    outer loop
      vertex 0.0596181107 -0.0272127953 -2.83276955E-18
      vertex 0.0696181107 -0.00768123341 1.2246468E-18
      vertex 0.0696181107 -0.0272127953 1.2246468E-18
    endloop
  endfacet
  facet normal 4.05741635E-16 0 -1
    outer loop
      vertex 0.0696181107 0.0118503275 1.2246468E-18
      vertex 0.0696181107 -0.00768123341 1.2246468E-18
      vertex 0.0596181107 -0.00768123341 -2.83276955E-18
    endloop
  endfacet
  facet normal 4.05741635E-16 0 -1
    outer loop
      vertex 0.0696181107 0.0118503275 1.2246468E-18
      vertex 0.0596181107 -0.00768123341 -2.83276955E-18
      vertex 0.0596181107 0.0118503275 -2.83276955E-18
    endloop
  endfacet
  facet normal 4.05741635E-16 0 -1
    outer loop
      vertex 0.0596181107 0.0118503275 -2.83276955E-18
      vertex 0.0596181107 0.0313818893 -2.83276955E-18
      vertex 0.0696181107 0.0313818893 1.2246468E-18
    endloop
  endfacet
  facet normal 4.05741635E-16 0 -1
    outer loop
      vertex 0.0596181107 0.0118503275 -2.83276955E-18
      vertex 0.0696181107 0.0313818893 1.2246468E-18
      vertex 0.0696181107 0.0118503275 1.2246468E-18
    endloop
  endfacet
  facet normal 4.05741635E-16 0 -1
    outer loop
      vertex 0.0696181107 0.0509134483 1.2246468E-18
      vertex 0.0696181107 0.0313818893 1.2246468E-18
      vertex 0.0596181107 0.0313818893 -2.83276955E-18
    endloop
  endfacet
  facet normal 4.05741635E-16 0 -1
    outer loop
      vertex 0.0696181107 0.0509134483 1.2246468E-18
      vertex 0.0596181107 0.0313818893 -2.83276955E-18
      vertex 0.0596181107 0.0509134483 -2.83276955E-18
    endloop
  endfacet
  facet normal -0.707106781 0 -0.707106781
    outer loop
      vertex 0.0596181107 0.0509134483 -2.83276955E-18
      vertex 0.0596181107 0.070445015 -2.83276955E-18
      vertex 0.0646181107 0.070445015 -0.005
    endloop
  endfacet
  facet normal 0.707106781 0 -0.707106781
    outer loop
      vertex 0.0646181107 0.070445015 -0.005
      vertex 0.0696181107 0.070445015 1.2246468E-18
      vertex 0.0696181107 0.0509134483 1.2246468E-18
    endloop
  endfacet
  facet normal 3.93066421E-16 -0.247998637 -0.968760381
    outer loop
      vertex 0.0646181107 0.070445015 -0.005
      vertex 0.0696181107 0.0509134483 1.2246468E-18
      vertex 0.0596181107 0.0509134483 -2.83276955E-18
    endloop
  endfacet
  facet normal -0.707106781 0 0.707106781
    outer loop
      vertex 0.0596181107 -0.0662759171 -2.83276955E-18
      vertex 0.0596181107 -0.0858074799 -2.83276955E-18
      vertex 0.0646181107 -0.0858074799 0.005
    endloop
  endfacet
  facet normal 0.707106781 0 0.707106781
    outer loop
      vertex 0.0646181107 -0.0858074799 0.005
      vertex 0.0696181107 -0.0858074799 1.2246468E-18
      vertex 0.0696181107 -0.0662759171 1.2246468E-18
    endloop
  endfacet
  facet normal -3.93066417E-16 0.247998683 0.968760369
    outer loop
      vertex 0.0646181107 -0.0858074799 0.005
      vertex 0.0696181107 -0.0662759171 1.2246468E-18
      vertex 0.0596181107 -0.0662759171 -2.83276955E-18
    endloop
  endfacet
  facet normal -4.05741635E-16 0 1
    outer loop
      vertex 0.0696181107 -0.0662759171 1.2246468E-18
      vertex 0.0696181107 -0.0467443542 1.2246468E-18
      vertex 0.0596181107 -0.0467443542 -2.83276955E-18
    endloop
  endfacet
  facet normal -4.05741635E-16 0 1
    outer loop
      vertex 0.0696181107 -0.0662759171 1.2246468E-18
      vertex 0.0596181107 -0.0467443542 -2.83276955E-18
      vertex 0.0596181107 -0.0662759171 -2.83276955E-18
    endloop
  endfacet
  facet normal -4.05741635E-16 0 1
    outer loop
      vertex 0.0596181107 -0.0272127953 -2.83276955E-18
      vertex 0.0596181107 -0.0467443542 -2.83276955E-18
      vertex 0.0696181107 -0.0467443542 1.2246468E-18
    endloop
  endfacet
  facet normal -4.05741635E-16 0 1
    outer loop
      vertex 0.0596181107 -0.0272127953 -2.83276955E-18
      vertex 0.0696181107 -0.0467443542 1.2246468E-18
      vertex 0.0696181107 -0.0272127953 1.2246468E-18
    endloop
  endfacet
  facet normal -4.05741635E-16 0 1
    outer loop
      vertex 0.0696181107 -0.0272127953 1.2246468E-18
      vertex 0.0696181107 -0.00768123341 1.2246468E-18
      vertex 0.0596181107 -0.00768123341 -2.83276955E-18
    endloop
  endfacet
  facet normal -4.05741635E-16 0 1
    outer loop
      vertex 0.0696181107 -0.0272127953 1.2246468E-18
      vertex 0.0596181107 -0.00768123341 -2.83276955E-18
      vertex 0.0596181107 -0.0272127953 -2.83276955E-18
    endloop
  endfacet
  facet normal -4.05741635E-16 0 1
    outer loop
      vertex 0.0596181107 0.0118503275 -2.83276955E-18
      vertex 0.0596181107 -0.00768123341 -2.83276955E-18
      vertex 0.0696181107 -0.00768123341 1.2246468E-18
    endloop
  endfacet
  facet normal -4.05741635E-16 0 1
    outer loop
      vertex 0.0596181107 0.0118503275 -2.83276955E-18
      vertex 0.0696181107 -0.00768123341 1.2246468E-18
      vertex 0.0696181107 0.0118503275 1.2246468E-18
    endloop
  endfacet
  facet normal -4.05741635E-16 0 1
    outer loop
      vertex 0.0696181107 0.0118503275 1.2246468E-18
      vertex 0.0696181107 0.0313818893 1.2246468E-18
      vertex 0.0596181107 0.0313818893 -2.83276955E-18
    endloop
  endfacet
  facet normal -4.05741635E-16 0 1
    outer loop
      vertex 0.0696181107 0.0118503275 1.2246468E-18
      vertex 0.0596181107 0.0313818893 -2.83276955E-18
      vertex 0.0596181107 0.0118503275 -2.83276955E-18
    endloop
  endfacet
  facet normal -4.05741635E-16 0 1
    outer loop
      vertex 0.0596181107 0.0509134483 -2.83276955E-18
      vertex 0.0596181107 0.0313818893 -2.83276955E-18
      vertex 0.0696181107 0.0313818893 1.2246468E-18
    endloop
  endfacet
  facet normal -4.05741635E-16 0 1
    outer loop
      vertex 0.0596181107 0.0509134483 -2.83276955E-18
      vertex 0.0696181107 0.0313818893 1.2246468E-18
      vertex 0.0696181107 0.0509134483 1.2246468E-18
    endloop
  endfacet
  facet normal -0.707106781 0 0.707106781
    outer loop
      vertex 0.0646181107 0.070445015 0.005
      vertex 0.0596181107 0.070445015 -2.83276955E-18
      vertex 0.0596181107 0.0509134483 -2.83276955E-18
    endloop
  endfacet
  facet normal -3.93066421E-16 -0.247998637 0.968760381
    outer loop
      vertex 0.0646181107 0.070445015 0.005
      vertex 0.0596181107 0.0509134483 -2.83276955E-18
      vertex 0.0696181107 0.0509134483 1.2246468E-18
    endloop
  endfacet
  facet normal 0.707106781 -0 0.707106781
    outer loop
      vertex 0.0696181107 0.0509134483 1.2246468E-18
      vertex 0.0696181107 0.070445015 1.2246468E-18
      vertex 0.0646181107 0.070445015 0.005
    endloop
  endfacet
  facet normal 0 -1 -0
    outer loop
      vertex 0.0596181107 -0.0858074799 -2.83276955E-18
      vertex 0.0646181107 -0.0858074799 -0.005
      vertex 0.0696181107 -0.0858074799 1.2246468E-18
    endloop
  endfacet
  facet normal 0 -1 0
    outer loop
      vertex 0.0596181107 -0.0858074799 -2.83276955E-18
      vertex 0.0696181107 -0.0858074799 1.2246468E-18
      vertex 0.0646181107 -0.0858074799 0.005
    endloop
  endfacet
  facet normal 0 1 0
    outer loop
      vertex 0.0696181107 0.070445015 1.2246468E-18
      vertex 0.0646181107 0.070445015 -0.005
      vertex 0.0596181107 0.070445015 -2.83276955E-18
    endloop
  endfacet
  facet normal 0 1 0
    outer loop
      vertex 0.0696181107 0.070445015 1.2246468E-18
      vertex 0.0596181107 0.070445015 -2.83276955E-18
      vertex 0.0646181107 0.070445015 0.005
    endloop
  endfacet
endsolid prop2
