solid prop1
   color       0.57647 0.34902 0.41569
  facet normal 0 0 1
    outer loop
      vertex -0.0948115463 -0.0662759171 0
      vertex -0.0948115463 -0.0858074799 0
      vertex -0.074882843 -0.0858074799 0
    endloop
  endfacet
  facet normal 0 0 1
    outer loop
      vertex -0.0948115463 -0.0662759171 0
      vertex -0.074882843 -0.0858074799 0
      vertex -0.0748667374 -0.0662891998 0
    endloop
  endfacet
  facet normal -0 0 1
    outer loop
      vertex -0.0748667374 -0.0662891998 0
      vertex -0.0748506241 -0.046765152 0
      vertex -0.0948115463 -0.0467443542 0
    endloop
  endfacet
  facet normal 0 0 1
    outer loop
      vertex -0.0748667374 -0.0662891998 0
      vertex -0.0948115463 -0.0467443542 0
      vertex -0.0948115463 -0.0662759171 0
    endloop
  endfacet
  facet normal 0 0 1
    outer loop
      vertex -0.0748667374 -0.0662891998 0
      vertex -0.074882843 -0.0858074799 0
      vertex -0.0549541321 -0.0858074799 0
    endloop
  endfacet
  facet normal 0 0 1
    outer loop
      vertex -0.0748667374 -0.0662891998 0
      vertex -0.0549541321 -0.0858074799 0
      vertex -0.0549424553 -0.0662257004 0
    endloop
  endfacet
  facet normal 0 0 1
    outer loop
      vertex -0.0948115463 -0.0272127953 0
      vertex -0.0948115463 -0.0467443542 0
      vertex -0.0748506241 -0.046765152 0
    endloop
  endfacet
  facet normal 0 0 1
    outer loop
      vertex -0.0948115463 -0.0272127953 0
      vertex -0.0748506241 -0.046765152 0
      vertex -0.0748912735 -0.0272260761 0
    endloop
  endfacet
  facet normal -0 0 1
    outer loop
      vertex -0.0549424553 -0.0662257004 0
      vertex -0.0549308624 -0.0467859077 0
      vertex -0.0748506241 -0.046765152 0
    endloop
  endfacet
  facet normal 0 -0 1
    outer loop
      vertex -0.0549424553 -0.0662257004 0
      vertex -0.0748506241 -0.046765152 0
      vertex -0.0748667374 -0.0662891998 0
    endloop
  endfacet
  facet normal 0 0 1
    outer loop
      vertex -0.0549424553 -0.0662257004 0
      vertex -0.0549541321 -0.0858074799 0
      vertex -0.035025425 -0.0858074799 0
    endloop
  endfacet
  facet normal 0 0 1
    outer loop
      vertex -0.0549424553 -0.0662257004 0
      vertex -0.035025425 -0.0858074799 0
      vertex -0.035027565 -0.0662466583 0
    endloop
  endfacet
  facet normal -0 -0 1
    outer loop
      vertex -0.0748912735 -0.0272260761 0
      vertex -0.0749319382 -0.00768123341 0
      vertex -0.0948115463 -0.00768123341 0
    endloop
  endfacet
  facet normal 0 0 1
    outer loop
      vertex -0.0748912735 -0.0272260761 0
      vertex -0.0948115463 -0.00768123341 0
      vertex -0.0948115463 -0.0272127953 0
    endloop
  endfacet
  facet normal 0 0 1
    outer loop
      vertex -0.0748912735 -0.0272260761 0
      vertex -0.0748506241 -0.046765152 0
      vertex -0.0549308624 -0.0467859077 0
    endloop
  endfacet
  facet normal 0 0 1
    outer loop
      vertex -0.0748912735 -0.0272260761 0
      vertex -0.0549308624 -0.0467859077 0
      vertex -0.0549192581 -0.0273253422 0
    endloop
  endfacet
  facet normal 0 -0 1
    outer loop
      vertex -0.035027565 -0.0662466583 0
      vertex -0.035029705 -0.0466914902 0
      vertex -0.0549308624 -0.0467859077 0
    endloop
  endfacet
  facet normal 0 -0 1
    outer loop
      vertex -0.035027565 -0.0662466583 0
      vertex -0.0549308624 -0.0467859077 0
      vertex -0.0549424553 -0.0662257004 0
    endloop
  endfacet
  facet normal 0 0 1
    outer loop
      vertex -0.035027565 -0.0662466583 0
      vertex -0.035025425 -0.0858074799 0
      vertex -0.0150967188 -0.0858074799 0
    endloop
  endfacet
  facet normal 0 0 1
    outer loop
      vertex -0.035027565 -0.0662466583 0
      vertex -0.0150967188 -0.0858074799 0
      vertex -0.0150967188 -0.0661469116 0
    endloop
  endfacet
  facet normal 0 0 1
    outer loop
      vertex -0.0948115463 0.0118503275 0
      vertex -0.0948115463 -0.00768123341 0
      vertex -0.0749319382 -0.00768123341 0
    endloop
  endfacet
  facet normal 0 0 1
    outer loop
      vertex -0.0948115463 0.0118503275 0
      vertex -0.0749319382 -0.00768123341 0
      vertex -0.0748912735 0.0118636084 0
    endloop
  endfacet
  facet normal -0 0 1
    outer loop
      vertex -0.0549192581 -0.0273253422 0
      vertex -0.0549075432 -0.00768123341 0
      vertex -0.0749319382 -0.00768123341 0
    endloop
  endfacet
  facet normal 0 0 1
    outer loop
      vertex -0.0549192581 -0.0273253422 0
      vertex -0.0749319382 -0.00768123341 0
      vertex -0.0748912735 -0.0272260761 0
    endloop
  endfacet
  facet normal 0 0 1
    outer loop
      vertex -0.0549192581 -0.0273253422 0
      vertex -0.0549308624 -0.0467859077 0
      vertex -0.035029705 -0.0466914902 0
    endloop
  endfacet
  facet normal 0 0 1
    outer loop
      vertex -0.0549192581 -0.0273253422 0
      vertex -0.035029705 -0.0466914902 0
      vertex -0.0349680634 -0.0271834221 0
    endloop
  endfacet
  facet normal 0 -0 1
    outer loop
      vertex -0.0150967188 -0.0661469116 0
      vertex -0.0150967188 -0.0465969238 0
      vertex -0.035029705 -0.0466914902 0
    endloop
  endfacet
  facet normal 0 0 1
    outer loop
      vertex -0.0150967188 -0.0661469116 0
      vertex -0.035029705 -0.0466914902 0
      vertex -0.035027565 -0.0662466583 0
    endloop
  endfacet
  facet normal 0 0 1
    outer loop
      vertex -0.0150967188 -0.0661469116 0
      vertex -0.0150967188 -0.0858074799 0
      vertex 0.00483198881 -0.0858074799 0
    endloop
  endfacet
  facet normal 0 0 1
    outer loop
      vertex -0.0150967188 -0.0661469116 0
      vertex 0.00483198881 -0.0858074799 0
      vertex 0.00483412838 -0.0662466583 0
    endloop
  endfacet
  facet normal 0 0 1
    outer loop
      vertex -0.0748912735 0.0118636084 0
      vertex -0.0748506241 0.0314026852 0
      vertex -0.0948115463 0.0313818893 0
    endloop
  endfacet
  facet normal 0 0 1
    outer loop
      vertex -0.0748912735 0.0118636084 0
      vertex -0.0948115463 0.0313818893 0
      vertex -0.0948115463 0.0118503275 0
    endloop
  endfacet
  facet normal 0 0 1
    outer loop
      vertex -0.0748912735 0.0118636084 0
      vertex -0.0749319382 -0.00768123341 0
      vertex -0.0549075432 -0.00768123341 0
    endloop
  endfacet
  facet normal 0 0 1
    outer loop
      vertex -0.0748912735 0.0118636084 0
      vertex -0.0549075432 -0.00768123341 0
      vertex -0.0549192581 0.0119628754 0
    endloop
  endfacet
  facet normal -0 0 1
    outer loop
      vertex -0.0349680634 -0.0271834221 0
      vertex -0.0349064445 -0.00768123341 0
      vertex -0.0549075432 -0.00768123341 0
    endloop
  endfacet
  facet normal 0 -0 1
    outer loop
      vertex -0.0349680634 -0.0271834221 0
      vertex -0.0549075432 -0.00768123341 0
      vertex -0.0549192581 -0.0273253422 0
    endloop
  endfacet
  facet normal 0 0 1
    outer loop
      vertex -0.0349680634 -0.0271834221 0
      vertex -0.035029705 -0.0466914902 0
      vertex -0.0150967188 -0.0465969238 0
    endloop
  endfacet
  facet normal 0 0 1
    outer loop
      vertex -0.0349680634 -0.0271834221 0
      vertex -0.0150967188 -0.0465969238 0
      vertex -0.0150967188 -0.0271206493 0
    endloop
  endfacet
  facet normal -0 0 1
    outer loop
      vertex 0.00483412838 -0.0662466583 0
      vertex 0.00483626699 -0.0466914902 0
      vertex -0.0150967188 -0.0465969238 0
    endloop
  endfacet
  facet normal 0 0 1
    outer loop
      vertex 0.00483412838 -0.0662466583 0
      vertex -0.0150967188 -0.0465969238 0
      vertex -0.0150967188 -0.0661469116 0
    endloop
  endfacet
  facet normal 0 0 1
    outer loop
      vertex 0.00483412838 -0.0662466583 0
      vertex 0.00483198881 -0.0858074799 0
      vertex 0.0247606964 -0.0858074799 0
    endloop
  endfacet
  facet normal 0 0 1
    outer loop
      vertex 0.00483412838 -0.0662466583 0
      vertex 0.0247606964 -0.0858074799 0
      vertex 0.0247490177 -0.0662257004 0
    endloop
  endfacet
  facet normal 0 0 1
    outer loop
      vertex -0.0948115463 0.0509134483 0
      vertex -0.0948115463 0.0313818893 0
      vertex -0.0748506241 0.0314026852 0
    endloop
  endfacet
  facet normal 0 0 1
    outer loop
      vertex -0.0948115463 0.0509134483 0
      vertex -0.0748506241 0.0314026852 0
      vertex -0.0748667374 0.0509267311 0
    endloop
  endfacet
  facet normal 0 -0 1
    outer loop
      vertex -0.0549192581 0.0119628754 0
      vertex -0.0549308624 0.0314234409 0
      vertex -0.0748506241 0.0314026852 0
    endloop
  endfacet
  facet normal 0 -0 1
    outer loop
      vertex -0.0549192581 0.0119628754 0
      vertex -0.0748506241 0.0314026852 0
      vertex -0.0748912735 0.0118636084 0
    endloop
  endfacet
  facet normal 0 0 1
    outer loop
      vertex -0.0549192581 0.0119628754 0
      vertex -0.0549075432 -0.00768123341 0
      vertex -0.0349064445 -0.00768123341 0
    endloop
  endfacet
  facet normal 0 0 1
    outer loop
      vertex -0.0549192581 0.0119628754 0
      vertex -0.0349064445 -0.00768123341 0
      vertex -0.0349680634 0.0118209553 0
    endloop
  endfacet
  facet normal -0 -0 1
    outer loop
      vertex -0.0150967188 -0.0271206493 0
      vertex -0.0150967188 -0.00768123341 0
      vertex -0.0349064445 -0.00768123341 0
    endloop
  endfacet
  facet normal 0 -0 1
    outer loop
      vertex -0.0150967188 -0.0271206493 0
      vertex -0.0349064445 -0.00768123341 0
      vertex -0.0349680634 -0.0271834221 0
    endloop
  endfacet
  facet normal 0 0 1
    outer loop
      vertex -0.0150967188 -0.0271206493 0
      vertex -0.0150967188 -0.0465969238 0
      vertex 0.00483626699 -0.0466914902 0
    endloop
  endfacet
  facet normal 0 0 1
    outer loop
      vertex -0.0150967188 -0.0271206493 0
      vertex 0.00483626699 -0.0466914902 0
      vertex 0.00477462816 -0.0271834221 0
    endloop
  endfacet
  facet normal -0 -0 1
    outer loop
      vertex 0.0247490177 -0.0662257004 0
      vertex 0.0247374249 -0.0467859077 0
      vertex 0.00483626699 -0.0466914902 0
    endloop
  endfacet
  facet normal 0 -0 1
    outer loop
      vertex 0.0247490177 -0.0662257004 0
      vertex 0.00483626699 -0.0466914902 0
      vertex 0.00483412838 -0.0662466583 0
    endloop
  endfacet
  facet normal 0 0 1
    outer loop
      vertex 0.0247490177 -0.0662257004 0
      vertex 0.0247606964 -0.0858074799 0
      vertex 0.0446894035 -0.0858074799 0
    endloop
  endfacet
  facet normal 0 0 1
    outer loop
      vertex 0.0247490177 -0.0662257004 0
      vertex 0.0446894035 -0.0858074799 0
      vertex 0.0446732979 -0.0662891998 0
    endloop
  endfacet
  facet normal -0 -0 1
    outer loop
      vertex -0.0748667374 0.0509267311 0
      vertex -0.074882843 0.070445015 0
      vertex -0.0948115463 0.070445015 0
    endloop
  endfacet
  facet normal 0 0 1
    outer loop
      vertex -0.0748667374 0.0509267311 0
      vertex -0.0948115463 0.070445015 0
      vertex -0.0948115463 0.0509134483 0
    endloop
  endfacet
  facet normal 0 0 1
    outer loop
      vertex -0.0748667374 0.0509267311 0
      vertex -0.0748506241 0.0314026852 0
      vertex -0.0549308624 0.0314234409 0
    endloop
  endfacet
  facet normal 0 0 1
    outer loop
      vertex -0.0748667374 0.0509267311 0
      vertex -0.0549308624 0.0314234409 0
      vertex -0.0549424553 0.0508632317 0
    endloop
  endfacet
  facet normal -0 -0 1
    outer loop
      vertex -0.0349680634 0.0118209553 0
      vertex -0.035029705 0.0313290253 0
      vertex -0.0549308624 0.0314234409 0
    endloop
  endfacet
  facet normal 0 0 1
    outer loop
      vertex -0.0349680634 0.0118209553 0
      vertex -0.0549308624 0.0314234409 0
      vertex -0.0549192581 0.0119628754 0
    endloop
  endfacet
  facet normal 0 0 1
    outer loop
      vertex -0.0349680634 0.0118209553 0
      vertex -0.0349064445 -0.00768123341 0
      vertex -0.0150967188 -0.00768123341 0
    endloop
  endfacet
  facet normal 0 0 1
    outer loop
      vertex -0.0349680634 0.0118209553 0
      vertex -0.0150967188 -0.00768123341 0
      vertex -0.0150967188 0.0117581835 0
    endloop
  endfacet
  facet normal -0 -0 1
    outer loop
      vertex 0.00477462816 -0.0271834221 0
      vertex 0.00471300793 -0.00768123341 0
      vertex -0.0150967188 -0.00768123341 0
    endloop
  endfacet
  facet normal 0 0 1
    outer loop
      vertex 0.00477462816 -0.0271834221 0
      vertex -0.0150967188 -0.00768123341 0
      vertex -0.0150967188 -0.0271206493 0
    endloop
  endfacet
  facet normal 0 0 1
    outer loop
      vertex 0.00477462816 -0.0271834221 0
      vertex 0.00483626699 -0.0466914902 0
      vertex 0.0247374249 -0.0467859077 0
    endloop
  endfacet
  facet normal 0 0 1
    outer loop
      vertex 0.00477462816 -0.0271834221 0
      vertex 0.0247374249 -0.0467859077 0
      vertex 0.0247258205 -0.0273253422 0
    endloop
  endfacet
  facet normal 0 -0 1
    outer loop
      vertex 0.0446732979 -0.0662891998 0
      vertex 0.0446571922 -0.046765152 0
      vertex 0.0247374249 -0.0467859077 0
    endloop
  endfacet
  facet normal 0 0 1
    outer loop
      vertex 0.0446732979 -0.0662891998 0
      vertex 0.0247374249 -0.0467859077 0
      vertex 0.0247490177 -0.0662257004 0
    endloop
  endfacet
  facet normal 0 0 1
    outer loop
      vertex 0.0446732979 -0.0662891998 0
      vertex 0.0446894035 -0.0858074799 0
      vertex 0.0646181107 -0.0858074799 0
    endloop
  endfacet
  facet normal 0 0 1
    outer loop
      vertex 0.0446732979 -0.0662891998 0
      vertex 0.0646181107 -0.0858074799 0
      vertex 0.0646181107 -0.0662759171 0
    endloop
  endfacet
  facet normal -0 -0 1
    outer loop
      vertex -0.0549424553 0.0508632317 0
      vertex -0.0549541321 0.070445015 0
      vertex -0.074882843 0.070445015 0
    endloop
  endfacet
  facet normal 0 0 1
    outer loop
      vertex -0.0549424553 0.0508632317 0
      vertex -0.074882843 0.070445015 0
      vertex -0.0748667374 0.0509267311 0
    endloop
  endfacet
  facet normal 0 0 1
    outer loop
      vertex -0.0549424553 0.0508632317 0
      vertex -0.0549308624 0.0314234409 0
      vertex -0.035029705 0.0313290253 0
    endloop
  endfacet
  facet normal 0 0 1
    outer loop
      vertex -0.0549424553 0.0508632317 0
      vertex -0.035029705 0.0313290253 0
      vertex -0.035027565 0.0508841934 0
    endloop
  endfacet
  facet normal -0 -0 1
    outer loop
      vertex -0.0150967188 0.0117581835 0
      vertex -0.0150967188 0.0312344589 0
      vertex -0.035029705 0.0313290253 0
    endloop
  endfacet
  facet normal 0 0 1
    outer loop
      vertex -0.0150967188 0.0117581835 0
      vertex -0.035029705 0.0313290253 0
      vertex -0.0349680634 0.0118209553 0
    endloop
  endfacet
  facet normal 0 0 1
    outer loop
      vertex -0.0150967188 0.0117581835 0
      vertex -0.0150967188 -0.00768123341 0
      vertex 0.00471300793 -0.00768123341 0
    endloop
  endfacet
  facet normal 0 0 1
    outer loop
      vertex -0.0150967188 0.0117581835 0
      vertex 0.00471300793 -0.00768123341 0
      vertex 0.00477462816 0.0118209553 0
    endloop
  endfacet
  facet normal -0 -0 1
    outer loop
      vertex 0.0247258205 -0.0273253422 0
      vertex 0.0247141056 -0.00768123341 0
      vertex 0.00471300793 -0.00768123341 0
    endloop
  endfacet
  facet normal 0 0 1
    outer loop
      vertex 0.0247258205 -0.0273253422 0
      vertex 0.00471300793 -0.00768123341 0
      vertex 0.00477462816 -0.0271834221 0
    endloop
  endfacet
  facet normal 0 0 1
    outer loop
      vertex 0.0247258205 -0.0273253422 0
      vertex 0.0247374249 -0.0467859077 0
      vertex 0.0446571922 -0.046765152 0
    endloop
  endfacet
  facet normal 0 0 1
    outer loop
      vertex 0.0247258205 -0.0273253422 0
      vertex 0.0446571922 -0.046765152 0
      vertex 0.0446978378 -0.0272260761 0
    endloop
  endfacet
  facet normal 0 -0 1
    outer loop
      vertex 0.0646181107 -0.0662759171 0
      vertex 0.0646181107 -0.0467443542 0
      vertex 0.0446571922 -0.046765152 0
    endloop
  endfacet
  facet normal 0 0 1
    outer loop
      vertex 0.0646181107 -0.0662759171 0
      vertex 0.0446571922 -0.046765152 0
      vertex 0.0446732979 -0.0662891998 0
    endloop
  endfacet
  facet normal -0 0 1
    outer loop
      vertex -0.035027565 0.0508841934 0
      vertex -0.035025425 0.070445015 0
      vertex -0.0549541321 0.070445015 0
    endloop
  endfacet
  facet normal 0 0 1
    outer loop
      vertex -0.035027565 0.0508841934 0
      vertex -0.0549541321 0.070445015 0
      vertex -0.0549424553 0.0508632317 0
    endloop
  endfacet
  facet normal 0 0 1
    outer loop
      vertex -0.035027565 0.0508841934 0
      vertex -0.035029705 0.0313290253 0
      vertex -0.0150967188 0.0312344589 0
    endloop
  endfacet
  facet normal 0 0 1
    outer loop
      vertex -0.035027565 0.0508841934 0
      vertex -0.0150967188 0.0312344589 0
      vertex -0.0150967188 0.0507844467 0
    endloop
  endfacet
  facet normal 0 0 1
    outer loop
      vertex 0.00477462816 0.0118209553 0
      vertex 0.00483626699 0.0313290253 0
      vertex -0.0150967188 0.0312344589 0
    endloop
  endfacet
  facet normal 0 0 1
    outer loop
      vertex 0.00477462816 0.0118209553 0
      vertex -0.0150967188 0.0312344589 0
      vertex -0.0150967188 0.0117581835 0
    endloop
  endfacet
  facet normal 0 0 1
    outer loop
      vertex 0.00477462816 0.0118209553 0
      vertex 0.00471300793 -0.00768123341 0
      vertex 0.0247141056 -0.00768123341 0
    endloop
  endfacet
  facet normal 0 0 1
    outer loop
      vertex 0.00477462816 0.0118209553 0
      vertex 0.0247141056 -0.00768123341 0
      vertex 0.0247258205 0.0119628754 0
    endloop
  endfacet
  facet normal -0 0 1
    outer loop
      vertex 0.0446978378 -0.0272260761 0
      vertex 0.0447384987 -0.00768123341 0
      vertex 0.0247141056 -0.00768123341 0
    endloop
  endfacet
  facet normal 0 0 1
    outer loop
      vertex 0.0446978378 -0.0272260761 0
      vertex 0.0247141056 -0.00768123341 0
      vertex 0.0247258205 -0.0273253422 0
    endloop
  endfacet
  facet normal 0 0 1
    outer loop
      vertex 0.0446978378 -0.0272260761 0
      vertex 0.0446571922 -0.046765152 0
      vertex 0.0646181107 -0.0467443542 0
    endloop
  endfacet
  facet normal 0 0 1
    outer loop
      vertex 0.0446978378 -0.0272260761 0
      vertex 0.0646181107 -0.0467443542 0
      vertex 0.0646181107 -0.0272127953 0
    endloop
  endfacet
  facet normal -0 -0 1
    outer loop
      vertex -0.0150967188 0.0507844467 0
      vertex -0.0150967188 0.070445015 0
      vertex -0.035025425 0.070445015 0
    endloop
  endfacet
  facet normal 0 -0 1
    outer loop
      vertex -0.0150967188 0.0507844467 0
      vertex -0.035025425 0.070445015 0
      vertex -0.035027565 0.0508841934 0
    endloop
  endfacet
  facet normal 0 0 1
    outer loop
      vertex -0.0150967188 0.0507844467 0
      vertex -0.0150967188 0.0312344589 0
      vertex 0.00483626699 0.0313290253 0
    endloop
  endfacet
  facet normal 0 0 1
    outer loop
      vertex -0.0150967188 0.0507844467 0
      vertex 0.00483626699 0.0313290253 0
      vertex 0.00483412838 0.0508841934 0
    endloop
  endfacet
  facet normal 0 0 1
    outer loop
      vertex 0.0247258205 0.0119628754 0
      vertex 0.0247374249 0.0314234409 0
      vertex 0.00483626699 0.0313290253 0
    endloop
  endfacet
  facet normal 0 -0 1
    outer loop
      vertex 0.0247258205 0.0119628754 0
      vertex 0.00483626699 0.0313290253 0
      vertex 0.00477462816 0.0118209553 0
    endloop
  endfacet
  facet normal 0 0 1
    outer loop
      vertex 0.0247258205 0.0119628754 0
      vertex 0.0247141056 -0.00768123341 0
      vertex 0.0447384987 -0.00768123341 0
    endloop
  endfacet
  facet normal 0 0 1
    outer loop
      vertex 0.0247258205 0.0119628754 0
      vertex 0.0447384987 -0.00768123341 0
      vertex 0.0446978378 0.0118636084 0
    endloop
  endfacet
  facet normal -0 -0 1
    outer loop
      vertex 0.0646181107 -0.0272127953 0
      vertex 0.0646181107 -0.00768123341 0
      vertex 0.0447384987 -0.00768123341 0
    endloop
  endfacet
  facet normal 0 -0 1
    outer loop
      vertex 0.0646181107 -0.0272127953 0
      vertex 0.0447384987 -0.00768123341 0
      vertex 0.0446978378 -0.0272260761 0
    endloop
  endfacet
  facet normal -0 -0 1
    outer loop
      vertex 0.00483412838 0.0508841934 0
      vertex 0.00483198881 0.070445015 0
      vertex -0.0150967188 0.070445015 0
    endloop
  endfacet
  facet normal 0 0 1
    outer loop
      vertex 0.00483412838 0.0508841934 0
      vertex -0.0150967188 0.070445015 0
      vertex -0.0150967188 0.0507844467 0
    endloop
  endfacet
  facet normal 0 0 1
    outer loop
      vertex 0.00483412838 0.0508841934 0
      vertex 0.00483626699 0.0313290253 0
      vertex 0.0247374249 0.0314234409 0
    endloop
  endfacet
  facet normal 0 0 1
    outer loop
      vertex 0.00483412838 0.0508841934 0
      vertex 0.0247374249 0.0314234409 0
      vertex 0.0247490177 0.0508632317 0
    endloop
  endfacet
  facet normal -0 -0 1
    outer loop
      vertex 0.0446978378 0.0118636084 0
      vertex 0.0446571922 0.0314026852 0
      vertex 0.0247374249 0.0314234409 0
    endloop
  endfacet
  facet normal 0 -0 1
    outer loop
      vertex 0.0446978378 0.0118636084 0
      vertex 0.0247374249 0.0314234409 0
      vertex 0.0247258205 0.0119628754 0
    endloop
  endfacet
  facet normal 0 0 1
    outer loop
      vertex 0.0446978378 0.0118636084 0
      vertex 0.0447384987 -0.00768123341 0
      vertex 0.0646181107 -0.00768123341 0
    endloop
  endfacet
  facet normal 0 0 1
    outer loop
      vertex 0.0446978378 0.0118636084 0
      vertex 0.0646181107 -0.00768123341 0
      vertex 0.0646181107 0.0118503275 0
    endloop
  endfacet
  facet normal -0 0 1
    outer loop
      vertex 0.0247490177 0.0508632317 0
      vertex 0.0247606964 0.070445015 0
      vertex 0.00483198881 0.070445015 0
    endloop
  endfacet
  facet normal 0 0 1
    outer loop
      vertex 0.0247490177 0.0508632317 0
      vertex 0.00483198881 0.070445015 0
      vertex 0.00483412838 0.0508841934 0
    endloop
  endfacet
  facet normal 0 0 1
    outer loop
      vertex 0.0247490177 0.0508632317 0
      vertex 0.0247374249 0.0314234409 0
      vertex 0.0446571922 0.0314026852 0
    endloop
  endfacet
  facet normal 0 0 1
    outer loop
      vertex 0.0247490177 0.0508632317 0
      vertex 0.0446571922 0.0314026852 0
      vertex 0.0446732979 0.0509267311 0
    endloop
  endfacet
  facet normal -0 -0 1
    outer loop
      vertex 0.0646181107 0.0118503275 0
      vertex 0.0646181107 0.0313818893 0
      vertex 0.0446571922 0.0314026852 0
    endloop
  endfacet
  facet normal 0 0 1
    outer loop
      vertex 0.0646181107 0.0118503275 0
      vertex 0.0446571922 0.0314026852 0
      vertex 0.0446978378 0.0118636084 0
    endloop
  endfacet
  facet normal -0 0 1
    outer loop
      vertex 0.0446732979 0.0509267311 0
      vertex 0.0446894035 0.070445015 0
      vertex 0.0247606964 0.070445015 0
    endloop
  endfacet
  facet normal 0 -0 1
    outer loop
      vertex 0.0446732979 0.0509267311 0
      vertex 0.0247606964 0.070445015 0
      vertex 0.0247490177 0.0508632317 0
    endloop
  endfacet
  facet normal 0 0 1
    outer loop
      vertex 0.0446732979 0.0509267311 0
      vertex 0.0446571922 0.0314026852 0
      vertex 0.0646181107 0.0313818893 0
    endloop
  endfacet
  facet normal 0 0 1
    outer loop
      vertex 0.0446732979 0.0509267311 0
      vertex 0.0646181107 0.0313818893 0
      vertex 0.0646181107 0.0509134483 0
    endloop
  endfacet
  facet normal -0 -0 1
    outer loop
      vertex 0.0646181107 0.0509134483 0
      vertex 0.0646181107 0.070445015 0
      vertex 0.0446894035 0.070445015 0
    endloop
  endfacet
  facet normal 0 -0 1
    outer loop
      vertex 0.0646181107 0.0509134483 0
      vertex 0.0446894035 0.070445015 0
      vertex 0.0446732979 0.0509267311 0
    endloop
  endfacet
endsolid prop1
solid prop2
   color       0.57647 0.87059 0.32157
  facet normal -0.707106781 -0 -0.707106781
    outer loop
      vertex 0.0646181107 -0.0858074799 -0.005
      vertex 0.0596181107 -0.0858074799 -2.83276955E-18
      vertex 0.0596181107 -0.0662759171 -2.83276955E-18
    endloop
  endfacet
  facet normal 3.93066416E-16 0.247998683 -0.968760369
    outer loop
      vertex 0.0646181107 -0.0858074799 -0.005
      vertex 0.0596181107 -0.0662759171 -2.83276955E-18
      vertex 0.0696181107 -0.0662759171 1.2246468E-18
    endloop
  endfacet
  facet normal 0.707106781 0 -0.707106781
    outer loop
      vertex 0.0696181107 -0.0662759171 1.2246468E-18
      vertex 0.0696181107 -0.0858074799 1.2246468E-18
      vertex 0.0646181107 -0.0858074799 -0.005
    endloop
  endfacet
  facet normal 4.05741635E-16 0 -1
    outer loop
      vertex 0.0596181107 -0.0662759171 -2.83276955E-18
      vertex 0.0596181107 -0.0467443542 -2.83276955E-18
      vertex 0.0696181107 -0.0467443542 1.2246468E-18
    endloop
  endfacet
  facet normal 4.05741635E-16 0 -1
    outer loop
      vertex 0.0596181107 -0.0662759171 -2.83276955E-18
      vertex 0.0696181107 -0.0467443542 1.2246468E-18
      vertex 0.0696181107 -0.0662759171 1.2246468E-18
    endloop
  endfacet
  facet normal 4.05741635E-16 0 -1
    outer loop
      vertex 0.0696181107 -0.0272127953 1.2246468E-18
      vertex 0.0696181107 -0.0467443542 1.2246468E-18
      vertex 0.0596181107 -0.0467443542 -2.83276955E-18
    endloop
  endfacet
  facet normal 4.05741635E-16 0 -1
    outer loop
      vertex 0.0696181107 -0.0272127953 1.2246468E-18
      vertex 0.0596181107 -0.0467443542 -2.83276955E-18
      vertex 0.0596181107 -0.0272127953 -2.83276955E-18
    endloop
  endfacet
  facet normal 4.05741635E-16 0 -1
    outer loop
      vertex 0.0596181107 -0.0272127953 -2.83276955E-18
      vertex 0.0596181107 -0.00768123341 -2.83276955E-18
      vertex 0.0696181107 -0.00768123341 1.2246468E-18
    endloop
  endfacet
  facet normal 4.05741635E-16 0 -1
    outer loop
      vertex 0.0596181107 -0.0272127953 -2.83276955E-18
      vertex 0.0696181107 -0.00768123341 1.2246468E-18
      vertex 0.0696181107 -0.0272127953 1.2246468E-18
    endloop
  endfacet
  facet normal 4.05741635E-16 0 -1
    outer loop
      vertex 0.0696181107 0.0118503275 1.2246468E-18
      vertex 0.0696181107 -0.00768123341 1.2246468E-18
      vertex 0.0596181107 -0.00768123341 -2.83276955E-18
    endloop
  endfacet
  facet normal 4.05741635E-16 0 -1
    outer loop
      vertex 0.0696181107 0.0118503275 1.2246468E-18
      vertex 0.0596181107 -0.00768123341 -2.83276955E-18
      vertex 0.0596181107 0.0118503275 -2.83276955E-18
    endloop
  endfacet
  facet normal 4.05741635E-16 0 -1
    outer loop
      vertex 0.0596181107 0.0118503275 -2.83276955E-18
      vertex 0.0596181107 0.0313818893 -2.83276955E-18
      vertex 0.0696181107 0.0313818893 1.2246468E-18
    endloop
  endfacet
  facet normal 4.05741635E-16 0 -1
    outer loop
      vertex 0.0596181107 0.0118503275 -2.83276955E-18
      vertex 0.0696181107 0.0313818893 1.2246468E-18
      vertex 0.0696181107 0.0118503275 1.2246468E-18
    endloop
  endfacet
  facet normal 4.05741635E-16 0 -1
    outer loop
      vertex 0.0696181107 0.0509134483 1.2246468E-18
      vertex 0.0696181107 0.0313818893 1.2246468E-18
      vertex 0.0596181107 0.0313818893 -2.83276955E-18
    endloop
  endfacet
  facet normal 4.05741635E-16 0 -1
    outer loop
      vertex 0.0696181107 0.0509134483 1.2246468E-18
      vertex 0.0596181107 0.0313818893 -2.83276955E-18
      vertex 0.0596181107 0.0509134483 -2.83276955E-18
    endloop
  endfacet
  facet normal -0.707106781 0 -0.707106781
    outer loop
      vertex 0.0596181107 0.0509134483 -2.83276955E-18
      vertex 0.0596181107 0.070445015 -2.83276955E-18
      vertex 0.0646181107 0.070445015 -0.005
    endloop
  endfacet
  facet normal 0.707106781 0 -0.707106781
    outer loop
      vertex 0.0646181107 0.070445015 -0.005
      vertex 0.0696181107 0.070445015 1.2246468E-18
      vertex 0.0696181107 0.0509134483 1.2246468E-18
    endloop
  endfacet
  facet normal 3.93066421E-16 -0.247998636 -0.968760381
    outer loop
      vertex 0.0646181107 0.070445015 -0.005
      vertex 0.0696181107 0.0509134483 1.2246468E-18
      vertex 0.0596181107 0.0509134483 -2.83276955E-18
    endloop
  endfacet
  facet normal -0.707106781 0 0.707106781
    outer loop
      vertex 0.0596181107 -0.0662759171 -2.83276955E-18
      vertex 0.0596181107 -0.0858074799 -2.83276955E-18
      vertex 0.0646181107 -0.0858074799 0.005
    endloop
  endfacet
  facet normal 0.707106781 0 0.707106781
    outer loop
      vertex 0.0646181107 -0.0858074799 0.005
      vertex 0.0696181107 -0.0858074799 1.2246468E-18
      vertex 0.0696181107 -0.0662759171 1.2246468E-18
    endloop
  endfacet
  facet normal -3.93066416E-16 0.247998683 0.968760369
    outer loop
      vertex 0.0646181107 -0.0858074799 0.005
      vertex 0.0696181107 -0.0662759171 1.2246468E-18
      vertex 0.0596181107 -0.0662759171 -2.83276955E-18
    endloop
  endfacet
  facet normal -4.05741635E-16 0 1
    outer loop
      vertex 0.0696181107 -0.0662759171 1.2246468E-18
      vertex 0.0696181107 -0.0467443542 1.2246468E-18
      vertex 0.0596181107 -0.0467443542 -2.83276955E-18
    endloop
  endfacet
  facet normal -4.05741635E-16 0 1
    outer loop
      vertex 0.0696181107 -0.0662759171 1.2246468E-18
      vertex 0.0596181107 -0.0467443542 -2.83276955E-18
      vertex 0.0596181107 -0.0662759171 -2.83276955E-18
    endloop
  endfacet
  facet normal -4.05741635E-16 0 1
    outer loop
      vertex 0.0596181107 -0.0272127953 -2.83276955E-18
      vertex 0.0596181107 -0.0467443542 -2.83276955E-18
      vertex 0.0696181107 -0.0467443542 1.2246468E-18
    endloop
  endfacet
  facet normal -4.05741635E-16 0 1
    outer loop
      vertex 0.0596181107 -0.0272127953 -2.83276955E-18
      vertex 0.0696181107 -0.0467443542 1.2246468E-18
      vertex 0.0696181107 -0.0272127953 1.2246468E-18
    endloop
  endfacet
  facet normal -4.05741635E-16 0 1
    outer loop
      vertex 0.0696181107 -0.0272127953 1.2246468E-18
      vertex 0.0696181107 -0.00768123341 1.2246468E-18
      vertex 0.0596181107 -0.00768123341 -2.83276955E-18
    endloop
  endfacet
  facet normal -4.05741635E-16 0 1
    outer loop
      vertex 0.0696181107 -0.0272127953 1.2246468E-18
      vertex 0.0596181107 -0.00768123341 -2.83276955E-18
      vertex 0.0596181107 -0.0272127953 -2.83276955E-18
    endloop
  endfacet
  facet normal -4.05741635E-16 0 1
    outer loop
      vertex 0.0596181107 0.0118503275 -2.83276955E-18
      vertex 0.0596181107 -0.00768123341 -2.83276955E-18
      vertex 0.0696181107 -0.00768123341 1.2246468E-18
    endloop
  endfacet
  facet normal -4.05741635E-16 0 1
    outer loop
      vertex 0.0596181107 0.0118503275 -2.83276955E-18
      vertex 0.0696181107 -0.00768123341 1.2246468E-18
      vertex 0.0696181107 0.0118503275 1.2246468E-18
    endloop
  endfacet
  facet normal -4.05741635E-16 0 1
    outer loop
      vertex 0.0696181107 0.0118503275 1.2246468E-18
      vertex 0.0696181107 0.0313818893 1.2246468E-18
      vertex 0.0596181107 0.0313818893 -2.83276955E-18
    endloop
  endfacet
  facet normal -4.05741635E-16 0 1
    outer loop
      vertex 0.0696181107 0.0118503275 1.2246468E-18
      vertex 0.0596181107 0.0313818893 -2.83276955E-18
      vertex 0.0596181107 0.0118503275 -2.83276955E-18
    endloop
  endfacet
  facet normal -4.05741635E-16 0 1
    outer loop
      vertex 0.0596181107 0.0509134483 -2.83276955E-18
      vertex 0.0596181107 0.0313818893 -2.83276955E-18
      vertex 0.0696181107 0.0313818893 1.2246468E-18
    endloop
  endfacet
  facet normal -4.05741635E-16 0 1
    outer loop
      vertex 0.0596181107 0.0509134483 -2.83276955E-18
      vertex 0.0696181107 0.0313818893 1.2246468E-18
      vertex 0.0696181107 0.0509134483 1.2246468E-18
    endloop
  endfacet
  facet normal -0.707106781 0 0.707106781
    outer loop
      vertex 0.0646181107 0.070445015 0.005
      vertex 0.0596181107 0.070445015 -2.83276955E-18
      vertex 0.0596181107 0.0509134483 -2.83276955E-18
    endloop
  endfacet
  facet normal -3.93066421E-16 -0.247998636 0.968760381
    outer loop
      vertex 0.0646181107 0.070445015 0.005
      vertex 0.0596181107 0.0509134483 -2.83276955E-18
      vertex 0.0696181107 0.0509134483 1.2246468E-18
    endloop
  endfacet
  facet normal 0.707106781 -0 0.707106781
    outer loop
      vertex 0.0696181107 0.0509134483 1.2246468E-18
      vertex 0.0696181107 0.070445015 1.2246468E-18
      vertex 0.0646181107 0.070445015 0.005
    endloop
  endfacet
  facet normal 0 -1 -0
    outer loop
      vertex 0.0596181107 -0.0858074799 -2.83276955E-18
      vertex 0.0646181107 -0.0858074799 -0.005
      vertex 0.0696181107 -0.0858074799 1.2246468E-18
    endloop
  endfacet
  facet normal 0 -1 0
    outer loop
      vertex 0.0596181107 -0.0858074799 -2.83276955E-18
      vertex 0.0696181107 -0.0858074799 1.2246468E-18
      vertex 0.0646181107 -0.0858074799 0.005
    endloop
  endfacet
  facet normal 0 1 0
    outer loop
      vertex 0.0696181107 0.070445015 1.2246468E-18
      vertex 0.0646181107 0.070445015 -0.005
      vertex 0.0596181107 0.070445015 -2.83276955E-18
    endloop
  endfacet
  facet normal 0 1 0
    outer loop
      vertex 0.0696181107 0.070445015 1.2246468E-18
      vertex 0.0596181107 0.070445015 -2.83276955E-18
      vertex 0.0646181107 0.070445015 0.005
    endloop
  endfacet
endsolid prop2
solid prop3
   color       0.57647 0.031373 0.5451
  facet normal 0 0 -1
    outer loop
      vertex -0.103144882 -0.11080748 -0.0025
      vertex -0.119811546 -0.11080748 -0.0025
      vertex -0.119811546 -0.0941408081 -0.0025
    endloop
  endfacet
  facet normal -0 0 -1
    outer loop
      vertex -0.103144882 -0.11080748 -0.0025
      vertex -0.119811546 -0.0941408081 -0.0025
      vertex -0.103144882 -0.0941408081 -0.0025
    endloop
  endfacet
  facet normal 0 0 -1
    outer loop
      vertex -0.103144882 -0.0941408081 -0.0025
      vertex -0.0864782104 -0.0941408081 -0.0025
      vertex -0.0864782104 -0.11080748 -0.0025
    endloop
  endfacet
  facet normal 0 0 -1
    outer loop
      vertex -0.103144882 -0.0941408081 -0.0025
      vertex -0.0864782104 -0.11080748 -0.0025
      vertex -0.103144882 -0.11080748 -0.0025
    endloop
  endfacet
  facet normal 0 -0 -1
    outer loop
      vertex -0.103144882 -0.077474144 -0.0025
      vertex -0.103144882 -0.0941408081 -0.0025
      vertex -0.119811546 -0.0941408081 -0.0025
    endloop
  endfacet
  facet normal 0 0 -1
    outer loop
      vertex -0.103144882 -0.077474144 -0.0025
      vertex -0.119811546 -0.0941408081 -0.0025
      vertex -0.119811546 -0.077474144 -0.0025
    endloop
  endfacet
  facet normal 0 -0 -1
    outer loop
      vertex -0.0698115463 -0.0941408081 -0.0025
      vertex -0.0698115463 -0.11080748 -0.0025
      vertex -0.0864782104 -0.11080748 -0.0025
    endloop
  endfacet
  facet normal 0 0 -1
    outer loop
      vertex -0.0698115463 -0.0941408081 -0.0025
      vertex -0.0864782104 -0.11080748 -0.0025
      vertex -0.0864782104 -0.0941408081 -0.0025
    endloop
  endfacet
  facet normal -0 0 -1
    outer loop
      vertex -0.119811546 -0.077474144 -0.0025
      vertex -0.119811546 -0.0608074799 -0.0025
      vertex -0.103144882 -0.0608074799 -0.0025
    endloop
  endfacet
  facet normal 0 0 -1
    outer loop
      vertex -0.119811546 -0.077474144 -0.0025
      vertex -0.103144882 -0.0608074799 -0.0025
      vertex -0.103144882 -0.077474144 -0.0025
    endloop
  endfacet
  facet normal 0 -0 -1
    outer loop
      vertex -0.0864782104 -0.077474144 -0.0025
      vertex -0.0864782104 -0.0941408081 -0.0025
      vertex -0.103144882 -0.0941408081 -0.0025
    endloop
  endfacet
  facet normal 0 0 -1
    outer loop
      vertex -0.0864782104 -0.077474144 -0.0025
      vertex -0.103144882 -0.0941408081 -0.0025
      vertex -0.103144882 -0.077474144 -0.0025
    endloop
  endfacet
  facet normal -0 0 -1
    outer loop
      vertex -0.103144882 -0.077474144 -0.0025
      vertex -0.103144882 -0.0608074799 -0.0025
      vertex -0.0864782104 -0.0608074799 -0.0025
    endloop
  endfacet
  facet normal 0 0 -1
    outer loop
      vertex -0.103144882 -0.077474144 -0.0025
      vertex -0.0864782104 -0.0608074799 -0.0025
      vertex -0.0864782104 -0.077474144 -0.0025
    endloop
  endfacet
  facet normal 0 -0 -1
    outer loop
      vertex -0.0698115463 -0.077474144 -0.0025
      vertex -0.0698115463 -0.0941408081 -0.0025
      vertex -0.0864782104 -0.0941408081 -0.0025
    endloop
  endfacet
  facet normal 0 0 -1
    outer loop
      vertex -0.0698115463 -0.077474144 -0.0025
      vertex -0.0864782104 -0.0941408081 -0.0025
      vertex -0.0864782104 -0.077474144 -0.0025
    endloop
  endfacet
  facet normal -0 0 -1
    outer loop
      vertex -0.0864782104 -0.077474144 -0.0025
      vertex -0.0864782104 -0.0608074799 -0.0025
      vertex -0.0698115463 -0.0608074799 -0.0025
    endloop
  endfacet
  facet normal 0 0 -1
    outer loop
      vertex -0.0864782104 -0.077474144 -0.0025
      vertex -0.0698115463 -0.0608074799 -0.0025
      vertex -0.0698115463 -0.077474144 -0.0025
    endloop
  endfacet
  facet normal 0 0 1
    outer loop
      vertex -0.119811546 -0.0941408081 0.0025
      vertex -0.119811546 -0.11080748 0.0025
      vertex -0.103144882 -0.11080748 0.0025
    endloop
  endfacet
  facet normal 0 0 1
    outer loop
      vertex -0.119811546 -0.0941408081 0.0025
      vertex -0.103144882 -0.11080748 0.0025
      vertex -0.103144882 -0.0941408081 0.0025
    endloop
  endfacet
  facet normal 0 0 1
    outer loop
      vertex -0.0864782104 -0.0941408081 0.0025
      vertex -0.103144882 -0.0941408081 0.0025
      vertex -0.103144882 -0.11080748 0.0025
    endloop
  endfacet
  facet normal 0 0 1
    outer loop
      vertex -0.0864782104 -0.0941408081 0.0025
      vertex -0.103144882 -0.11080748 0.0025
      vertex -0.0864782104 -0.11080748 0.0025
    endloop
  endfacet
  facet normal -0 -0 1
    outer loop
      vertex -0.103144882 -0.0941408081 0.0025
      vertex -0.103144882 -0.077474144 0.0025
      vertex -0.119811546 -0.077474144 0.0025
    endloop
  endfacet
  facet normal 0 0 1
    outer loop
      vertex -0.103144882 -0.0941408081 0.0025
      vertex -0.119811546 -0.077474144 0.0025
      vertex -0.119811546 -0.0941408081 0.0025
    endloop
  endfacet
  facet normal 0 0 1
    outer loop
      vertex -0.0864782104 -0.077474144 0.0025
      vertex -0.103144882 -0.077474144 0.0025
      vertex -0.103144882 -0.0941408081 0.0025
    endloop
  endfacet
  facet normal 0 0 1
    outer loop
      vertex -0.0864782104 -0.077474144 0.0025
      vertex -0.103144882 -0.0941408081 0.0025
      vertex -0.0864782104 -0.0941408081 0.0025
    endloop
  endfacet
  facet normal 0 0 1
    outer loop
      vertex -0.0864782104 -0.11080748 0.0025
      vertex -0.0698115463 -0.11080748 0.0025
      vertex -0.0698115463 -0.0941408081 0.0025
    endloop
  endfacet
  facet normal -0 0 1
    outer loop
      vertex -0.0864782104 -0.11080748 0.0025
      vertex -0.0698115463 -0.0941408081 0.0025
      vertex -0.0864782104 -0.0941408081 0.0025
    endloop
  endfacet
  facet normal 0 0 1
    outer loop
      vertex -0.103144882 -0.0608074799 0.0025
      vertex -0.119811546 -0.0608074799 0.0025
      vertex -0.119811546 -0.077474144 0.0025
    endloop
  endfacet
  facet normal 0 0 1
    outer loop
      vertex -0.103144882 -0.0608074799 0.0025
      vertex -0.119811546 -0.077474144 0.0025
      vertex -0.103144882 -0.077474144 0.0025
    endloop
  endfacet
  facet normal 0 0 1
    outer loop
      vertex -0.0864782104 -0.0941408081 0.0025
      vertex -0.0698115463 -0.0941408081 0.0025
      vertex -0.0698115463 -0.077474144 0.0025
    endloop
  endfacet
  facet normal -0 0 1
    outer loop
      vertex -0.0864782104 -0.0941408081 0.0025
      vertex -0.0698115463 -0.077474144 0.0025
      vertex -0.0864782104 -0.077474144 0.0025
    endloop
  endfacet
  facet normal 0 0 1
    outer loop
      vertex -0.0864782104 -0.0608074799 0.0025
      vertex -0.103144882 -0.0608074799 0.0025
      vertex -0.103144882 -0.077474144 0.0025
    endloop
  endfacet
  facet normal 0 0 1
    outer loop
      vertex -0.0864782104 -0.0608074799 0.0025
      vertex -0.103144882 -0.077474144 0.0025
      vertex -0.0864782104 -0.077474144 0.0025
    endloop
  endfacet
  facet normal 0 0 1
    outer loop
      vertex -0.0864782104 -0.077474144 0.0025
      vertex -0.0698115463 -0.077474144 0.0025
      vertex -0.0698115463 -0.0608074799 0.0025
    endloop
  endfacet
  facet normal -0 0 1
    outer loop
      vertex -0.0864782104 -0.077474144 0.0025
      vertex -0.0698115463 -0.0608074799 0.0025
      vertex -0.0864782104 -0.0608074799 0.0025
    endloop
  endfacet
  facet normal -0 -1 0
    outer loop
      vertex -0.103144882 -0.11080748 0.0025
      vertex -0.119811546 -0.11080748 0.0025
      vertex -0.119811546 -0.11080748 -0.0025
    endloop
  endfacet
  facet normal 0 -1 0
    outer loop
      vertex -0.103144882 -0.11080748 0.0025
      vertex -0.119811546 -0.11080748 -0.0025
      vertex -0.103144882 -0.11080748 -0.0025
    endloop
  endfacet
  facet normal -0 -1 0
    outer loop
      vertex -0.0864782104 -0.11080748 0.0025
      vertex -0.103144882 -0.11080748 0.0025
      vertex -0.103144882 -0.11080748 -0.0025
    endloop
  endfacet
  facet normal 0 -1 0
    outer loop
      vertex -0.0864782104 -0.11080748 0.0025
      vertex -0.103144882 -0.11080748 -0.0025
      vertex -0.0864782104 -0.11080748 -0.0025
    endloop
  endfacet
  facet normal 0 -1 -0
    outer loop
      vertex -0.0864782104 -0.11080748 -0.0025
      vertex -0.0698115463 -0.11080748 -0.0025
      vertex -0.0698115463 -0.11080748 0.0025
    endloop
  endfacet
  facet normal 0 -1 0
    outer loop
      vertex -0.0864782104 -0.11080748 -0.0025
      vertex -0.0698115463 -0.11080748 0.0025
      vertex -0.0864782104 -0.11080748 0.0025
    endloop
  endfacet
  facet normal 0 1 0
    outer loop
      vertex -0.103144882 -0.0608074799 -0.0025
      vertex -0.119811546 -0.0608074799 -0.0025
      vertex -0.119811546 -0.0608074799 0.0025
    endloop
  endfacet
  facet normal 0 1 0
    outer loop
      vertex -0.103144882 -0.0608074799 -0.0025
      vertex -0.119811546 -0.0608074799 0.0025
      vertex -0.103144882 -0.0608074799 0.0025
    endloop
  endfacet
  facet normal 0 1 0
    outer loop
      vertex -0.0864782104 -0.0608074799 -0.0025
      vertex -0.103144882 -0.0608074799 -0.0025
      vertex -0.103144882 -0.0608074799 0.0025
    endloop
  endfacet
  facet normal 0 1 0
    outer loop
      vertex -0.0864782104 -0.0608074799 -0.0025
      vertex -0.103144882 -0.0608074799 0.0025
      vertex -0.0864782104 -0.0608074799 0.0025
    endloop
  endfacet
  facet normal -0 1 -0
    outer loop
      vertex -0.0864782104 -0.0608074799 0.0025
      vertex -0.0698115463 -0.0608074799 0.0025
      vertex -0.0698115463 -0.0608074799 -0.0025
    endloop
  endfacet
  facet normal 0 1 0
    outer loop
      vertex -0.0864782104 -0.0608074799 0.0025
      vertex -0.0698115463 -0.0608074799 -0.0025
      vertex -0.0864782104 -0.0608074799 -0.0025
    endloop
  endfacet
  facet normal 1 0 0
    outer loop
      vertex -0.0698115463 -0.0941408081 0.0025
      vertex -0.0698115463 -0.11080748 0.0025
      vertex -0.0698115463 -0.11080748 -0.0025
    endloop
  endfacet
  facet normal 1 0 0
    outer loop
      vertex -0.0698115463 -0.0941408081 0.0025
      vertex -0.0698115463 -0.11080748 -0.0025
      vertex -0.0698115463 -0.0941408081 -0.0025
    endloop
  endfacet
  facet normal 1 0 0
    outer loop
      vertex -0.0698115463 -0.077474144 0.0025
      vertex -0.0698115463 -0.0941408081 0.0025
      vertex -0.0698115463 -0.0941408081 -0.0025
    endloop
  endfacet
  facet normal 1 0 0
    outer loop
      vertex -0.0698115463 -0.077474144 0.0025
      vertex -0.0698115463 -0.0941408081 -0.0025
      vertex -0.0698115463 -0.077474144 -0.0025
    endloop
  endfacet
  facet normal 1 0 0
    outer loop
      vertex -0.0698115463 -0.077474144 -0.0025
      vertex -0.0698115463 -0.0608074799 -0.0025
      vertex -0.0698115463 -0.0608074799 0.0025
    endloop
  endfacet
  facet normal 1 -0 0
    outer loop
      vertex -0.0698115463 -0.077474144 -0.0025
      vertex -0.0698115463 -0.0608074799 0.0025
      vertex -0.0698115463 -0.077474144 0.0025
    endloop
  endfacet
  facet normal -1 0 0
    outer loop
      vertex -0.119811546 -0.0941408081 -0.0025
      vertex -0.119811546 -0.11080748 -0.0025
      vertex -0.119811546 -0.11080748 0.0025
    endloop
  endfacet
  facet normal -1 -0 0
    outer loop
      vertex -0.119811546 -0.0941408081 -0.0025
      vertex -0.119811546 -0.11080748 0.0025
      vertex -0.119811546 -0.0941408081 0.0025
    endloop
  endfacet
  facet normal -1 0 0
    outer loop
      vertex -0.119811546 -0.077474144 -0.0025
      vertex -0.119811546 -0.0941408081 -0.0025
      vertex -0.119811546 -0.0941408081 0.0025
    endloop
  endfacet
  facet normal -1 -0 0
    outer loop
      vertex -0.119811546 -0.077474144 -0.0025
      vertex -0.119811546 -0.0941408081 0.0025
      vertex -0.119811546 -0.077474144 0.0025
    endloop
  endfacet
  facet normal -1 0 0
    outer loop
      vertex -0.119811546 -0.077474144 0.0025
      vertex -0.119811546 -0.0608074799 0.0025
      vertex -0.119811546 -0.0608074799 -0.0025
    endloop
  endfacet
  facet normal -1 0 0
    outer loop
      vertex -0.119811546 -0.077474144 0.0025
      vertex -0.119811546 -0.0608074799 -0.0025
      vertex -0.119811546 -0.077474144 -0.0025
    endloop
  endfacet
endsolid prop3
